<?xml version="1.0" encoding="UTF-8" standalone="no"?>
<!-- Created with Inkscape (http://www.inkscape.org/) -->

<svg
   width="842.88159mm"
   height="183.53465mm"
   viewBox="0 0 842.88157 183.53465"
   version="1.1"
   id="svg1"
   xml:space="preserve"
   xmlns="http://www.w3.org/2000/svg"
   xmlns:svg="http://www.w3.org/2000/svg"><defs
     id="defs1"><style
       id="style1">.cls-1{fill:#fff}.cls-2{fill:#326ce5}</style></defs><g
     id="g24"
     style="display:inline"
     transform="translate(-19.357919,-54.61526)"><path
       id="path41"
       style="display:inline;fill:#ffffff;fill-opacity:1;stroke:none;stroke-width:3.49999;stroke-linecap:round;stroke-linejoin:round;stroke-dasharray:none;stroke-opacity:1"
       d="m 165.56044,54.62664 c -3.91381,-0.163196 -7.73146,1.438125 -10.70684,4.205428 -7.39861,6.881175 -9.75176,12.725241 -13.66635,17.95911 -2.15685,2.883737 -4.26882,5.655517 -6.10919,7.702889 -1.73532,1.930512 -3.30695,3.002385 -3.55275,3.149162 -0.0786,-0.103447 -1.16781,-0.174222 -3.05667,-0.897103 -2.38083,-0.911163 -5.68148,-2.359188 -9.75754,-2.954858 -6.65539,-0.97261 -8.84325,-1.00809 -13.71131,-1.00809 -4.86805,0 -7.055915,0.03547 -13.711305,1.00809 -4.076061,0.59567 -7.377231,2.043695 -9.758061,2.954858 -1.888858,0.722881 -2.97754,0.793656 -3.056144,0.897103 -0.245451,-0.146531 -1.817717,-1.218392 -3.553272,-3.149162 -1.840267,-2.047372 -3.952342,-4.819152 -6.109188,-7.702889 -3.91459,-5.233869 -6.267224,-11.077935 -13.665832,-17.95911 -2.550447,-2.372078 -5.721035,-3.886503 -9.039242,-4.168221 -1.106069,-0.0939 -2.227901,-0.05157 -3.349666,0.142627 -4.487057,0.776799 -8.563436,4.438553 -10.046415,9.498128 -3.045077,10.389091 -2.835991,7.9002 -6.183602,26.250077 -1.720198,9.429235 -2.512079,17.982981 -1.824695,25.337991 0.418345,4.47628 1.412723,8.64748 3.295406,12.15326 -3.784177,2.77131 -6.718969,6.75876 -6.718969,6.75876 -1.760696,3.00907 0.0208,6.85104 3.455086,7.45123 -0.09298,0.0855 -0.191201,0.13804 -0.283187,0.22634 -2.669138,2.56238 -4.306714,5.17798 -4.306714,5.17798 -2.289483,3.62298 0.741402,8.25897 4.978508,7.61504 0,0 0.845732,-0.002 1.970939,0.16588 -3.471564,3.66789 -4.859652,7.19336 -4.859652,7.19336 -0.768649,3.31954 1.935231,6.41886 5.328357,6.10763 -1.58789,2.22418 -2.48667,4.06229 -2.48667,4.06229 -1.618377,4.06476 2.394883,8.1011 6.468856,6.50606 -1.752226,4.79723 -1.771468,9.03718 -1.771468,9.03718 9.41e-4,4.20929 4.884695,6.53415 8.152474,3.8809 0,0 0.224291,-0.16281 0.250114,-0.18345 0.02268,1.51443 0.138326,2.86479 0.394291,3.88865 0.192106,0.76842 0.429498,1.40668 0.671793,1.91978 0.242296,0.51309 0.689364,1.16582 0.689364,1.16582 2.002539,2.21979 5.492511,2.19805 7.467244,-0.0465 0.528853,2.34397 1.3613,4.3052 2.788978,5.63428 0.858891,0.79958 1.868245,1.33603 2.755904,1.5999 0.88766,0.26388 2.117183,0.24391 2.117183,0.24391 1.203619,-0.40292 2.208976,-1.24848 2.812232,-2.36523 0.377759,0.64818 0.842272,1.55546 1.138948,1.99058 0.612378,0.89816 1.308448,1.64641 1.308447,1.64641 1.998518,1.47317 4.775265,1.25688 6.521566,-0.50798 1.483025,1.741 2.841687,2.98432 2.841687,2.98432 1.674474,1.06122 3.817751,1.03304 5.463749,-0.0718 0.507507,1.38313 1.104672,2.80533 1.83503,4.28501 2.431891,4.9269 3.334164,8.41459 3.334164,7.4998 0,1.25864 0.144219,4.55853 2.320272,7.86722 2.176052,3.30868 6.401977,6.25304 12.611116,7.30084 3.609287,0.60907 5.973924,0.88525 7.517884,1.00976 1.04645,0.0844 1.35503,0.0555 2.25877,0.0543 0.90373,-0.001 1.18726,0.0282 2.20969,-0.0543 1.54395,-0.12451 3.9081,-0.40069 7.51738,-1.00976 6.20914,-1.0478 10.43558,-3.99216 12.61163,-7.30084 2.17605,-3.30869 2.32027,-6.60858 2.32027,-7.86722 0,0.91479 0.90227,-2.5729 3.33416,-7.4998 0.70096,-1.42012 1.28257,-2.78892 1.77716,-4.11965 1.69242,1.08013 3.86675,1.0433 5.52162,-0.0935 0,0 1.35919,-1.24332 2.84221,-2.98432 1.74623,1.76457 4.52263,1.98084 6.52105,0.50798 0,0 0.69658,-0.74825 1.30896,-1.64641 0.29668,-0.43512 0.76067,-1.34188 1.13843,-1.99006 0.60338,1.11685 1.60894,1.96242 2.81275,2.36523 0,0 1.22952,0.0194 2.11718,-0.24443 0.88766,-0.26387 1.89702,-0.7998 2.75591,-1.59938 1.42768,-1.32908 2.26012,-3.29083 2.78897,-5.6348 1.97455,2.24431 5.46407,2.26629 7.46673,0.047 0,0 0.44708,-0.65324 0.68937,-1.16633 0.2423,-0.5131 0.47968,-1.15136 0.67179,-1.91978 0.25596,-1.02386 0.37213,-2.37422 0.39481,-3.88865 0.0258,0.0206 0.24959,0.18345 0.24959,0.18345 3.26778,2.65326 8.15154,0.32839 8.15248,-3.8809 0,0 -0.0234,-4.18627 -1.73995,-8.94313 4.12165,1.62206 8.16148,-2.51958 6.43734,-6.59959 0,0 -0.83089,-1.69458 -2.29082,-3.78944 3.46051,0.2284 6.0971,-3.0493 5.1325,-6.38049 0,0 -1.38757,-3.52547 -4.85913,-7.19336 1.12521,-0.1679 1.97042,-0.16639 1.97042,-0.16639 4.23711,0.64393 7.26799,-3.99206 4.97851,-7.61504 0,0 -1.60821,-2.53337 -4.19303,-5.05086 3.54148,-0.73057 5.16059,-4.86262 3.05821,-7.80469 0,0 -2.93464,-3.98744 -6.71897,-6.75876 1.88262,-3.50575 2.87655,-7.67705 3.29489,-12.15326 0.68739,-7.35501 -0.10398,-15.908756 -1.82417,-25.337991 -3.34762,-18.349877 -3.13853,-15.860986 -6.18361,-26.250077 -1.48298,-5.059575 -5.55988,-8.721329 -10.04693,-9.498128 -0.56071,-0.09707 -1.12154,-0.156482 -1.68052,-0.179834 z" /></g><g
     id="layer3"
     style="display:inline"
     transform="translate(-19.357919,-54.61526)"><path
       id="path1"
       style="stroke-linecap:round;stroke-linejoin:round"
       d="m 44.565755,57.876571 c -0.419799,0.01707 -0.837985,0.06145 -1.253153,0.133325 -3.321349,0.574992 -6.279987,3.105324 -7.482748,7.208862 -3.074155,10.488299 -2.761577,7.590591 -6.105053,25.917798 -1.687975,9.252614 -2.428193,17.575634 -1.785421,24.453284 0.516084,5.52211 1.955347,10.17963 4.668966,13.50667 -0.765597,0.34272 -1.595624,0.77727 -2.51871,1.43661 -3.151247,2.25089 -6.261633,6.28695 -6.261633,6.28695 -0.992324,1.24975 0.06877,3.06691 1.644861,2.81688 0,0 1.488703,-0.29671 3.538802,1.04645 0.778387,0.50998 1.21672,0.92939 1.718758,1.36529 -1.256058,0.66237 -2.778406,1.57684 -4.029211,2.77761 -2.356147,2.2619 -3.810621,4.57027 -3.810621,4.57027 -0.80214,1.26799 0.258637,2.8914 1.742013,2.66598 0,0 3.348774,-0.49708 6.836275,1.3808 1.487441,0.80093 1.161327,0.61044 1.987993,1.04128 -1.086812,0.61287 -2.256993,1.38701 -3.497978,2.60501 -3.563187,3.49721 -4.642611,6.57272 -4.642611,6.57272 -0.453743,1.36153 0.833942,2.66041 2.199349,2.21847 0,0 3.500598,-1.08866 7.201111,-0.43563 0.457398,0.0807 0.227823,0.0744 0.621151,0.15244 -0.708147,0.43808 -1.425359,0.90114 -2.117184,1.53531 -3.305892,3.0304 -5.22087,7.08794 -5.22087,7.08794 -0.742784,1.53459 0.923625,3.11731 2.417941,2.2965 0,0 3.411326,-1.76114 6.714835,-1.0604 0.546994,0.11603 0.667933,0.19815 1.11156,0.31058 -1.358175,0.93267 -2.710407,2.16284 -3.490226,4.14238 -1.741315,4.42026 -1.730644,8.43773 -1.730644,8.43773 8.4e-4,1.47309 1.710115,2.28625 2.853573,1.35754 0,0 0.937054,-0.76012 2.187463,-1.61334 1.25041,-0.85322 2.864975,-1.76926 3.748092,-2.02158 0.351547,-0.10044 0.288112,-0.0269 0.607715,-0.0997 -0.447986,1.09407 -0.840205,2.35218 -0.974618,3.96513 -0.198988,2.38786 -0.0084,4.06782 0.276986,5.20899 0.142647,0.57059 0.308434,1.00501 0.457336,1.32033 0.148903,0.31533 0.3514,0.60513 0.3514,0.60513 0.772707,1.02973 2.355289,0.90088 2.951241,-0.24029 0,0 1.334032,-2.22465 3.117123,-2.71095 0.712568,-0.19434 1.137485,-0.19091 1.661914,-0.24805 -0.142517,0.9026 -0.212015,1.93695 -0.01912,3.26595 0.378784,2.60976 1.170125,4.17202 2.158008,5.09168 0.493941,0.45982 1.026903,0.7322 1.468644,0.86352 0.441741,0.13131 0.954981,0.11885 0.954981,0.11885 0.754201,-0.0552 1.387632,-0.58861 1.570447,-1.3224 0,0 0.256128,-1.01418 0.703316,-2.14612 0.447189,-1.13195 1.275747,-2.29781 1.39268,-2.37298 0.05611,-0.0361 0.04211,-0.0166 0.09715,-0.0512 0.127455,0.95569 0.382054,2.00383 0.978752,3.19722 0.896064,1.79213 1.615163,2.97376 2.131136,3.73052 0.515973,0.75676 0.919841,1.17977 0.919841,1.17977 1.061922,1.06308 2.881592,0.38185 2.984314,-1.11724 0,0 0.05537,-0.79414 0.248046,-1.75752 0.192677,-0.96338 0.62242,-2.06268 0.834058,-2.31665 0.05773,-0.0693 0.156903,-0.10698 0.22841,-0.18138 0.05757,1.03857 0.252458,2.12247 0.886767,3.17965 1.670371,2.78395 3.806486,4.34547 3.806486,4.34547 1.411199,1.03379 3.298661,-0.41391 2.665988,-2.04484 0,0 -0.481632,-1.38144 0.275435,-2.41381 0.360664,-0.49181 1.012355,-1.03086 1.668632,-1.52755 0.681461,3.63617 1.631534,7.22874 3.680912,11.3807 2.444353,4.95214 3.67006,8.12213 3.67006,8.93951 0,1.0093 0.116062,3.54277 1.784904,6.08025 1.668843,2.53747 4.897325,4.94791 10.437606,5.88284 3.538368,0.5971 5.816325,0.862 7.238315,0.97668 1.21474,0.098 1.63503,0.0676 1.9871,0.0665 0.35207,-0.001 0.7568,0.0304 1.9584,-0.0665 1.42199,-0.11468 3.69995,-0.37958 7.23832,-0.97668 5.54028,-0.93493 8.76824,-3.34537 10.43709,-5.88284 1.66884,-2.53748 1.78542,-5.07044 1.78542,-6.07974 0,-0.81738 1.2257,-3.98736 3.67006,-8.9395 2.04948,-4.15218 2.99996,-7.74485 3.68143,-11.38122 0.65616,0.49663 1.30751,1.03582 1.66811,1.52755 0.75707,1.03237 0.27544,2.41381 0.27544,2.41381 -0.63266,1.63092 1.25478,3.07862 2.66598,2.04484 0,0 2.13612,-1.56152 3.80649,-4.34547 0.63431,-1.05718 0.8292,-2.14108 0.88677,-3.17965 0.0715,0.0744 0.17068,0.11211 0.22841,0.18138 0.21163,0.25397 0.64137,1.35327 0.83405,2.31665 0.19268,0.96338 0.24805,1.75752 0.24805,1.75752 0.10272,1.49909 1.9224,2.18033 2.98432,1.11724 0,0 0.40387,-0.42301 0.91984,-1.17977 0.51598,-0.75676 1.23507,-1.93839 2.13113,-3.73052 0.5967,-1.19339 0.85078,-2.24153 0.97824,-3.19722 0.055,0.0346 0.0415,0.0151 0.0977,0.0512 0.11693,0.0752 0.94549,1.24103 1.39267,2.37298 0.44719,1.13194 0.70332,2.14612 0.70332,2.14612 0.18282,0.73379 0.81625,1.26717 1.57045,1.3224 0,0 0.51324,0.0125 0.95498,-0.11885 0.44174,-0.13132 0.9747,-0.4037 1.46864,-0.86352 0.98788,-0.91966 1.77923,-2.48192 2.15801,-5.09168 0.19289,-1.329 0.12337,-2.36335 -0.0191,-3.26595 0.52443,0.0571 0.94934,0.0542 1.66191,0.24857 1.78309,0.4863 3.11713,2.71043 3.11713,2.71043 0.59595,1.14117 2.17853,1.27002 2.95124,0.24029 0,0 0.2025,-0.2898 0.3514,-0.60513 0.1489,-0.31532 0.31469,-0.74974 0.45733,-1.32033 0.2853,-1.14117 0.47598,-2.82113 0.27699,-5.20899 -0.13441,-1.61295 -0.52664,-2.87106 -0.97462,-3.96513 0.3196,0.0728 0.25617,-6.9e-4 0.60772,0.0997 0.88312,0.25232 2.49768,1.16836 3.74809,2.02158 1.25041,0.85322 2.18746,1.61334 2.18746,1.61334 1.14346,0.92871 2.85273,0.11555 2.85357,-1.35754 0,0 0.0107,-4.01747 -1.73064,-8.43773 -0.77981,-1.97954 -2.13206,-3.20971 -3.49023,-4.14238 0.44363,-0.11243 0.56456,-0.19455 1.11156,-0.31058 3.30351,-0.70074 6.71484,1.0604 6.71484,1.0604 1.49414,0.81981 3.15955,-0.76229 2.41742,-2.2965 0,0 -1.91446,-4.05754 -5.22035,-7.08794 -0.69183,-0.63417 -1.40903,-1.09723 -2.11718,-1.53531 0.39333,-0.0781 0.16375,-0.0717 0.62115,-0.15244 3.70052,-0.65303 7.20111,0.43563 7.20111,0.43563 1.36541,0.44194 2.65309,-0.85694 2.19935,-2.21847 0,0 -1.07943,-3.07551 -4.64261,-6.57272 -1.24099,-1.218 -2.41169,-1.99214 -3.4985,-2.60501 0.82666,-0.43084 0.50107,-0.24035 1.98851,-1.04128 3.4875,-1.87788 6.83576,-1.3808 6.83576,-1.3808 1.48362,0.22596 2.54492,-1.39777 1.74253,-2.66598 0,0 -1.45448,-2.30837 -3.81062,-4.57027 -1.25081,-1.20077 -2.77315,-2.11524 -4.02921,-2.77761 0.50204,-0.4359 0.94037,-0.85531 1.71876,-1.36529 2.0501,-1.34316 3.5388,-1.04645 3.5388,-1.04645 1.57609,0.25003 2.63718,-1.56713 1.64486,-2.81688 0,0 -3.11091,-4.03606 -6.26215,-6.28695 -0.92328,-0.65948 -1.75299,-1.09388 -2.51871,-1.43661 2.7137,-3.32705 4.15339,-7.98448 4.66948,-13.50667 0.64277,-6.87765 -0.0975,-15.20067 -1.78542,-24.453284 -3.34348,-18.327207 -3.03141,-15.429499 -6.10557,-25.917798 -1.20276,-4.103538 -4.16088,-6.63387 -7.48223,-7.208862 -3.32135,-0.574992 -6.86576,0.642174 -9.61905,3.202905 -6.97335,6.485661 -9.08962,11.921826 -13.27929,17.523478 -2.16467,2.894207 -4.31327,5.724854 -6.29523,7.929749 -1.98196,2.204894 -3.86896,3.734081 -5.01933,4.140832 -0.91645,0.32404 -2.69968,-0.08108 -5.16816,-1.025777 -2.46848,-0.944706 -5.50992,-2.255327 -9.06611,-2.775024 -6.58073,-0.961699 -8.3733,-0.973029 -13.24028,-0.973029 -4.86698,0 -6.65954,0.01133 -13.240276,0.973029 -3.556191,0.519697 -6.598154,1.830318 -9.06663,2.775024 C 80.224668,90.725789 78.441952,91.1309 77.5255,90.80686 76.375226,90.400109 74.487615,88.870922 72.505652,86.666028 70.523689,84.461133 68.375623,81.630486 66.210946,78.736279 62.021279,73.134627 59.905006,67.698462 52.931653,61.212801 50.866688,59.292252 48.355769,58.125881 45.82821,57.906026 45.40695,57.869386 44.985554,57.8595 44.565755,57.876571 Z m 0.136426,3.499011 c 1.894203,-0.06729 4.047512,0.72652 5.846672,2.399853 6.515387,6.059723 8.373258,11.060665 12.859163,17.058391 2.17311,2.905482 4.359725,5.797576 6.494177,8.172111 2.134451,2.374536 4.144714,4.281859 6.45697,5.09943 2.546178,0.900281 5.02117,-0.07595 7.584034,-1.056783 2.562865,-0.980829 5.32616,-2.140258 8.322489,-2.578137 6.501424,-0.950109 7.867984,-0.93746 12.734104,-0.93746 4.86612,0 6.2332,-0.01265 12.73463,0.93746 2.99632,0.437879 5.75911,1.597308 8.32197,2.578137 2.56286,0.980829 5.03786,1.957064 7.58403,1.056783 2.31226,-0.817571 4.32251,-2.724894 6.45697,-5.09943 2.13445,-2.374535 4.32107,-5.266629 6.49418,-8.172111 4.4859,-5.997726 6.3443,-10.998668 12.85968,-17.058391 2.05618,-1.912381 4.57445,-2.675865 6.64042,-2.318204 2.06597,0.357661 3.8181,1.672002 4.71909,4.745963 3.10547,10.595139 2.68232,7.259471 6.02134,25.562264 1.65328,9.062392 2.33881,17.136772 1.74408,23.500372 -0.59473,6.36359 -2.45426,10.87498 -5.55263,13.29066 -0.0159,0.0263 -0.031,0.053 -0.0455,0.0801 -0.14306,0.1682 -0.253,0.36195 -0.32401,0.57103 -0.12648,0.18227 -0.21714,0.38692 -0.26717,0.60306 -0.0131,0.0276 -0.0255,0.0555 -0.0372,0.0837 0.0391,0.19301 0.11061,0.37803 0.21135,0.54725 0.0196,0.19827 0.0729,0.39174 0.15762,0.57206 0.0263,0.0159 0.053,0.031 0.0801,0.0455 0.16751,0.14241 0.36036,0.25199 0.56845,0.32298 0.18312,0.1272 0.38887,0.21823 0.60616,0.2682 0.0274,0.0131 0.0551,0.0255 0.0832,0.0372 0,0 0.21478,-0.012 0.89865,0.19534 0.68387,0.20727 1.70163,0.62804 2.91972,1.4981 1.12426,0.80304 2.42045,2.12259 3.48661,3.27525 -0.72805,0.24172 -1.50505,0.58453 -2.29133,1.09967 -2.76129,1.80913 -4.23799,3.72639 -4.23799,3.72639 -0.70554,0.92415 -0.33048,2.26666 0.75189,2.69131 0,0 3.52034,1.47861 5.29064,3.1781 0.71674,0.68807 0.65952,0.78265 1.1622,1.39061 -1.53324,0.21353 -3.30389,0.6163 -5.16609,1.61902 -4.00585,2.157 -5.24413,2.74609 -5.24413,2.74609 -1.58413,0.75411 -1.19695,3.11056 0.54519,3.31814 0,0 0.47976,0.0416 1.4919,0.46871 1.01214,0.4272 2.42438,1.2197 3.92586,2.69337 0.94175,0.92431 1.30167,1.53791 1.84381,2.25827 -1.41633,-0.11855 -3.00658,-0.15749 -4.75991,0.15192 -4.32316,0.76291 -6.32417,1.59991 -6.32417,1.59991 -1.62883,0.69896 -1.30605,3.09827 0.44959,3.34191 0,0 3.08491,0.45356 5.61516,2.77296 0.7446,0.68254 1.22288,1.45115 1.81229,2.21692 -1.25878,-0.16004 -2.6161,-0.20793 -4.08605,0.10387 -2.11909,0.44951 -3.56785,0.90528 -4.51549,1.2671 -0.94764,0.36183 -1.50585,0.70125 -1.50585,0.70125 -1.32851,0.84707 -0.94882,2.88087 0.59583,3.19154 0,0 4.07972,0.96576 5.27513,4.00027 0.49618,1.25953 0.65096,2.28286 0.87126,3.34915 -1.15105,-0.73765 -2.39568,-1.46125 -3.71295,-1.83761 -2.82452,-0.80701 -5.06067,-0.81081 -5.06067,-0.81081 -1.63389,-7.5e-4 -2.37759,2.0393 -1.12655,3.09025 0,0 0.33894,0.26074 0.85163,1.11105 0.51269,0.85031 1.09165,2.18475 1.25367,4.12894 0.0801,0.96168 -0.0493,1.24913 -0.0858,1.89446 -0.73533,-0.56794 -1.5844,-1.08379 -2.65824,-1.37666 -3.06017,-0.83459 -5.38313,-0.39842 -5.38313,-0.39842 -1.33334,0.26661 -1.86667,1.88539 -0.95292,2.89233 0,0 0.0251,-0.0384 0.18966,0.4749 0.16451,0.51334 0.33319,1.4329 0.11679,2.92386 -0.0928,0.63972 -0.22595,0.94401 -0.34934,1.3534 -0.50414,-1.26292 -1.10156,-2.63934 -2.54093,-3.56464 -1.88484,-1.21169 -3.44165,-1.78129 -3.44165,-1.78129 -1.56409,-0.56852 -2.96405,1.1612 -2.08204,2.57246 0,0 0.0841,0.0634 0.14469,0.66972 0.0606,0.60629 0.0112,1.60025 -0.72088,3.06442 -0.17099,0.34199 -0.23204,0.38886 -0.38654,0.68006 -0.22663,-0.55759 -0.48092,-1.11763 -0.91209,-1.63504 -1.61095,-1.93313 -4.25969,-3.46284 -4.25969,-3.46284 -1.40654,-0.87085 -3.12452,0.51555 -2.57039,2.07429 0,0 0.27807,0.78613 0.40825,1.85363 0.13018,1.06751 0.033,2.27927 -0.38292,2.97243 -0.15804,0.26341 -0.30583,0.36817 -0.46871,0.60152 -0.1517,-0.33031 -0.21698,-0.6595 -0.45527,-0.98444 -1.15787,-1.57891 -2.79874,-2.7133 -3.86488,-3.36155 0.59011,-5.03275 0.3359,-12.31966 0.3359,-12.31966 -0.0296,-0.96694 -0.83816,-1.7264 -1.80506,-1.69551 -0.96673,0.0299 -1.72588,0.83836 -1.69499,1.80506 0,0 0.22526,8.70637 -0.44131,12.86485 -0.72521,4.52427 -1.48426,8.30963 -3.84008,13.0824 -2.45777,4.97933 -4.03128,7.80545 -4.03128,10.48825 0,0.74079 -0.0861,2.45095 -1.20871,4.15789 -1.12262,1.70694 -3.27618,3.54036 -8.09615,4.35374 -3.462,0.58421 -5.64692,0.83332 -6.93756,0.93741 -1.29065,0.10408 -1.69137,0.0724 -1.69137,0.0724 -0.0448,0.0125 -0.40072,0.0317 -1.69137,-0.0724 -1.29064,-0.10409 -3.475567,-0.3532 -6.937558,-0.93741 -4.819974,-0.81338 -6.973013,-2.6468 -8.09563,-4.35374 -1.122618,-1.70694 -1.208712,-3.4171 -1.208712,-4.15789 0,-2.6828 -1.573505,-5.50892 -4.031278,-10.48825 -2.355812,-4.77277 -3.114867,-8.55813 -3.840076,-13.0824 -0.666575,-4.15848 -0.441317,-12.86485 -0.441317,-12.86485 0.03089,-0.9667 -0.728257,-1.77515 -1.694987,-1.80506 h -5.16e-4 c -0.9665,-0.0306 -1.774629,0.72847 -1.804541,1.69499 0,0 -0.254298,7.28741 0.335896,12.32018 -1.066136,0.64825 -2.707008,1.78264 -3.86488,3.36155 -0.23829,0.32494 -0.303566,0.65413 -0.455269,0.98444 -0.162883,-0.23335 -0.310663,-0.33811 -0.468706,-0.60152 -0.415896,-0.69316 -0.513106,-1.90492 -0.382922,-2.97243 0.130183,-1.0675 0.408244,-1.85363 0.408244,-1.85363 0.554126,-1.55873 -1.163852,-2.94514 -2.570386,-2.07429 0,0 -2.648746,1.52971 -4.259688,3.46284 -0.431178,0.51741 -0.685463,1.07693 -0.912089,1.63452 -0.154507,-0.2912 -0.215545,-0.33755 -0.38654,-0.67954 -0.732086,-1.46417 -0.781515,-2.45813 -0.720886,-3.06442 0.06063,-0.6063 0.144694,-0.66972 0.144694,-0.66972 0.882018,-1.41126 -0.517951,-3.14098 -2.082044,-2.57246 0,0 -1.556807,0.5696 -3.44165,1.78129 -1.439365,0.9253 -2.036794,2.30172 -2.54093,3.56464 -0.123394,-0.40939 -0.257,-0.7142 -0.34985,-1.35392 -0.216398,-1.49096 -0.0472,-2.41 0.117306,-2.92334 0.16451,-0.51334 0.189652,-0.4749 0.189652,-0.4749 0.913777,-1.00711 0.380115,-2.62603 -0.95343,-2.89233 0,0 -2.322448,-0.43617 -5.382617,0.39842 -1.073847,0.29287 -1.922909,0.80872 -2.658236,1.37666 -0.03659,-0.64533 -0.16592,-0.93278 -0.08578,-1.89446 0.162016,-1.94419 0.740984,-3.27863 1.253671,-4.12894 0.512687,-0.85031 0.851627,-1.11104 0.851627,-1.11105 1.251231,-1.05111 0.507079,-3.09148 -1.127063,-3.09025 0,0 -2.235639,0.004 -5.060156,0.81081 -1.317269,0.37636 -2.5619,1.09996 -3.712952,1.83761 0.220299,-1.06629 0.374568,-2.08962 0.870748,-3.34915 1.195415,-3.03451 5.275647,-4.00027 5.275647,-4.00027 1.544651,-0.31067 1.924341,-2.34448 0.595829,-3.19154 0,0 -0.558216,-0.33942 -1.505851,-0.70125 -0.947635,-0.36182 -2.396906,-0.81759 -4.516003,-1.2671 -1.469942,-0.3118 -2.826753,-0.26391 -4.085539,-0.10387 0.589408,-0.76577 1.067701,-1.53438 1.812293,-2.21692 2.530257,-2.3194 5.615161,-2.77296 5.615161,-2.77296 1.755452,-0.24402 2.077832,-2.64314 0.449068,-3.34191 0,0 -2.001001,-0.837 -6.324162,-1.59991 -1.753332,-0.30941 -3.343065,-0.27047 -4.759399,-0.15192 0.542147,-0.72036 0.901555,-1.33396 1.843298,-2.25827 1.50148,-1.47367 2.913721,-2.26617 3.925859,-2.69337 1.012139,-0.4272 1.492415,-0.46871 1.492415,-0.46871 1.741934,-0.20798 2.128708,-2.56421 0.54467,-3.31814 0,0 -1.238273,-0.58909 -5.244125,-2.74609 -1.862195,-1.00272 -3.632334,-1.40549 -5.165576,-1.61902 0.502682,-0.60796 0.444946,-0.70254 1.161686,-1.39061 1.770304,-1.69949 5.29115,-3.1781 5.29115,-3.1781 1.082367,-0.42465 1.457435,-1.76716 0.751892,-2.69131 0,0 -1.476686,-1.91726 -4.237984,-3.72639 -0.786273,-0.51514 -1.563283,-0.85795 -2.291333,-1.09967 1.066155,-1.15266 2.362351,-2.47221 3.486609,-3.27525 1.218093,-0.87006 2.23585,-1.29083 2.919718,-1.4981 0.683868,-0.20726 0.898653,-0.19534 0.898653,-0.19534 0.04644,-0.005 0.09264,-0.0126 0.138493,-0.0217 0.02315,-0.003 0.04624,-0.007 0.06925,-0.0109 0.431551,-0.0637 0.823734,-0.28638 1.099674,-0.62425 0.01022,-0.006 0.02038,-0.0113 0.03049,-0.017 0.02616,-0.0405 0.05065,-0.082 0.07338,-0.12454 0.04201,-0.0621 0.07998,-0.12682 0.113688,-0.19379 0.03227,-0.0699 0.05989,-0.14192 0.08268,-0.21549 0.02456,-0.0705 0.04458,-0.14246 0.05995,-0.21549 0.0132,-0.0764 0.02132,-0.15354 0.02429,-0.23099 0.0068,-0.0461 0.01184,-0.0925 0.01499,-0.13901 -0.0044,-0.0102 -0.0089,-0.0204 -0.01344,-0.0305 -0.02044,-0.43656 -0.203494,-0.84966 -0.513147,-1.15807 -0.0157,-0.0165 -0.03173,-0.0327 -0.04806,-0.0486 -0.0317,-0.0349 -0.0648,-0.0685 -0.09922,-0.10077 -3.098369,-2.41568 -4.957904,-6.92707 -5.552632,-13.29066 -0.594728,-6.3636 0.09081,-14.43798 1.744079,-23.500372 3.339022,-18.302793 2.915868,-14.967125 6.021338,-25.562264 0.900988,-3.073961 2.65312,-4.388302 4.719092,-4.745963 0.258246,-0.04471 0.52315,-0.07204 0.79375,-0.08165 z" /><path
       style="stroke-linecap:round;stroke-linejoin:round"
       d="m 90.330078,212.44336 c -0.921166,0.29235 -1.430953,1.27607 -1.138672,2.19726 1.430464,4.51199 5.212773,6.45357 8.40625,6.51563 0.01888,3.1e-4 0.03776,3.1e-4 0.05664,0 3.909834,-0.0508 6.027384,-1.72675 7.345704,-3.0957 1.31832,1.36895 3.43587,3.04492 7.3457,3.0957 0.0189,3.1e-4 0.0377,3.1e-4 0.0566,0 3.19348,-0.0621 6.97579,-2.00364 8.40625,-6.51563 0.29228,-0.92119 -0.21751,-1.90491 -1.13867,-2.19726 -0.92119,-0.29228 -1.90491,0.2175 -2.19726,1.13867 -1.00647,3.1746 -3.12142,4.02292 -5.10547,4.07031 -4.21639,-0.0673 -5.87696,-2.98828 -5.87696,-2.98828 -0.006,-0.005 -0.013,-0.0105 -0.0195,-0.0156 -0.13905,-0.23273 -0.30914,-0.74418 -1.45648,-0.74252 -1.14734,0.002 -1.35472,0.59654 -1.50447,0.75814 0,0 -1.66057,2.92099 -5.876959,2.98828 -1.984049,-0.0474 -4.099005,-0.89571 -5.105468,-4.07031 -0.292353,-0.92117 -1.276076,-1.43095 -2.197266,-1.13867 z"
       id="path7" /><path
       style="display:inline;stroke-linecap:round;stroke-linejoin:round"
       d="m 99.355419,179.27348 c -1.956226,0.914 -3.199338,2.81208 -4.292969,4.875 -0.546815,1.03145 -0.994035,2.10226 -1.255859,3.16015 -0.261825,1.0579 -0.420041,2.12703 0.07227,3.27539 0.764687,1.78373 2.512755,2.55286 3.763672,2.79688 1.250917,0.24402 2.261407,0.35248 2.410157,0.42773 0.0675,0.0342 0.49064,0.35903 0.91993,0.77344 0.42928,0.41441 0.87714,0.90003 1.47656,1.33594 1.21428,0.88301 2.27172,0.74962 2.55078,0.74963 0.27906,2e-5 1.3365,0.13338 2.55078,-0.74963 0.59942,-0.43591 1.04728,-0.92153 1.47656,-1.33594 0.42929,-0.41441 0.85242,-0.73928 0.91993,-0.77344 0.14875,-0.0753 1.15924,-0.18371 2.41015,-0.42773 1.25092,-0.24402 2.99899,-1.01315 3.76367,-2.79688 0.49231,-1.14836 0.33409,-2.21749 0.0723,-3.27539 -0.26183,-1.05789 -0.70904,-2.1287 -1.25586,-3.16015 -1.09363,-2.06292 -2.33674,-3.961 -4.29297,-4.875 -2.52928,-1.18177 -5.43491,-1.01519 -5.63222,-1.01502 -0.1973,1.6e-4 -3.12082,-0.16992 -5.656881,1.01502 z"
       id="path17"
       transform="translate(0,11.641668)" /><path
       style="stroke-linecap:round;stroke-linejoin:round"
       d="m 60.765625,85.410156 a 1.75,1.75 0 0 0 -1.019531,2.253906 c 0,0 1.607422,4.519723 1.607422,7.453125 0,1.469268 -0.104321,1.850337 -0.199219,3.246094 -0.617635,-0.873137 -1.06211,-1.620381 -1.871094,-2.583984 -3.49741,-4.165864 -8.486328,-3.998047 -8.486328,-3.998047 a 1.750175,1.750175 0 0 0 -1.458984,2.601562 c 0,0 0.742779,1.331745 1.503906,3.191407 0.761127,1.859662 1.488994,4.239711 1.515625,5.970701 0.02683,1.74394 -0.133622,2.70451 -0.279297,3.46289 -1.117006,-0.24361 -2.591087,-0.40824 -4.337891,-0.12304 -1.804145,0.29455 -3.035682,0.79299 -3.855468,1.28711 -0.409894,0.24705 -0.7143,0.49093 -0.933594,0.70117 -0.219295,0.21023 -0.419922,0.48828 -0.419922,0.48828 a 1.750175,1.750175 0 0 0 0.892578,2.62695 c 0,0 0.718691,0.24387 1.570313,0.62695 0.851621,0.38309 1.832059,0.99433 2.033203,1.20704 1.006539,1.06439 1.019531,1.69531 1.019531,1.69531 A 1.75,1.75 0 0 0 50,117.03906 a 1.75,1.75 0 0 0 1.519531,-1.95312 c 0,0 -0.30717,-1.93154 -1.949219,-3.66797 -0.415595,-0.43948 -0.883286,-0.76045 -1.353515,-1.05274 0.04678,-0.008 0.03965,-0.0195 0.08789,-0.0273 2.736202,-0.44673 4.167969,0.40234 4.167969,0.40234 a 1.750175,1.750175 0 0 0 2.328125,-0.61328 c 0,0 0.393888,-0.70623 0.638672,-1.7539 0.244785,-1.04767 0.452883,-2.6116 0.417969,-4.88086 -0.03952,-2.56849 -0.932482,-5.182711 -1.775391,-7.24219 -0.04287,-0.104749 -0.04317,-0.07985 -0.08594,-0.181641 0.862847,0.405927 1.767119,0.96003 2.607422,1.960938 2.833655,3.375243 4.410156,6.478513 4.410156,6.478513 a 1.750175,1.750175 0 0 0 3.298828,-0.59375 c 0,0 0.541017,-4.682641 0.541016,-8.796873 0,-4.078055 -1.832032,-8.685546 -1.832032,-8.685546 a 1.75,1.75 0 0 0 -2.255859,-1.021485 z m 88.468745,0 a 1.75,1.75 0 0 0 -2.25585,1.021485 c 0,0 -1.83204,4.607491 -1.83204,8.685546 -1e-5,4.114236 0.54102,8.796873 0.54102,8.796873 a 1.750175,1.750175 0 0 0 3.29883,0.59375 c 0,0 1.5765,-3.10327 4.41015,-6.478513 0.84031,-1.000908 1.74458,-1.555011 2.60743,-1.960938 -0.0428,0.101791 -0.0431,0.07689 -0.0859,0.181641 -0.84291,2.05948 -1.73588,4.6737 -1.77539,7.24219 -0.0349,2.26925 0.17319,3.8332 0.41797,4.88086 0.24477,1.04765 0.63867,1.7539 0.63867,1.7539 a 1.750175,1.750175 0 0 0 2.32812,0.61328 c 0,0 1.43177,-0.84907 4.16797,-0.40234 0.0482,0.008 0.0411,0.0192 0.0879,0.0273 -0.47023,0.29229 -0.93792,0.61326 -1.35351,1.05274 -1.64205,1.73643 -1.94922,3.66797 -1.94922,3.66797 a 1.75,1.75 0 0 0 1.51953,1.95312 1.75,1.75 0 0 0 1.95312,-1.52148 c 0,0 0.013,-0.63092 1.01954,-1.69531 0.20114,-0.21271 1.18158,-0.82395 2.0332,-1.20704 0.85162,-0.38308 1.57031,-0.62695 1.57031,-0.62695 a 1.750175,1.750175 0 0 0 0.89258,-2.62695 c 0,0 -0.20063,-0.27805 -0.41992,-0.48828 -0.2193,-0.21024 -0.5237,-0.45412 -0.9336,-0.70117 -0.81978,-0.49412 -2.05132,-0.99256 -3.85546,-1.28711 -1.74681,-0.2852 -3.22089,-0.12057 -4.3379,0.12304 -0.14567,-0.75839 -0.3061,-1.71894 -0.27929,-3.46289 0.0266,-1.73099 0.7545,-4.11104 1.51562,-5.970701 0.76113,-1.859662 1.50391,-3.191406 1.50391,-3.191407 a 1.750175,1.750175 0 0 0 -1.45899,-2.601562 c 0,0 -4.98891,-0.167815 -8.48632,3.998047 -0.80899,0.963603 -1.25346,1.710847 -1.8711,2.583984 -0.0949,-1.395756 -0.19922,-1.776827 -0.19922,-3.246094 0,-2.933402 1.60743,-7.453125 1.60743,-7.453125 a 1.75,1.75 0 0 0 -1.01954,-2.253906 z"
       id="path9" /><g
       id="g5"
       style="display:inline"><path
         style="display:inline;stroke-linecap:round;stroke-linejoin:round"
         d="m 75.1875,149.80078 c -0.627687,0.0242 -1.183808,0.4117 -1.423828,0.99219 0,0 -0.24883,0.60075 -0.484375,1.35547 -0.235546,0.75472 -0.520904,1.60071 -0.4375,2.66406 0.136003,1.73401 0.811325,3.4567 2.019531,4.79102 1.956427,2.16061 4.991059,2.868 7.912109,2.22265 2.49145,-0.55044 3.888672,-2.05273 3.888672,-2.05273 0.317679,-0.35968 0.458074,-0.84246 0.382813,-1.31641 -0.403121,-2.54189 -1.073206,-4.90834 -2.996094,-6.54687 -1.922888,-1.63853 -4.748145,-2.26517 -8.861328,-2.10938 z m 59.59766,0 c -4.11319,-0.15579 -6.93844,0.47085 -8.86133,2.10938 -1.92289,1.63853 -2.59493,4.00498 -2.99805,6.54687 -0.0747,0.47424 0.0664,0.95707 0.38477,1.31641 0,0 1.39722,1.50229 3.88867,2.05273 2.92105,0.64535 5.95568,-0.062 7.91211,-2.22265 1.2082,-1.33432 1.88353,-3.05701 2.01953,-4.79102 0.0834,-1.06335 -0.20196,-1.90934 -0.4375,-2.66406 -0.23555,-0.75472 -0.48438,-1.35547 -0.48438,-1.35547 -0.24002,-0.58049 -0.79614,-0.96802 -1.42382,-0.99219 z"
         id="path19"
         transform="matrix(1.0886304,0,0,1.0886304,-9.2909591,-10.672922)" /><path
         id="path4"
         d="m 83.546407,158.04314 c 0,2.82516 -2.308534,5.11541 -5.156255,5.11541 -2.847721,0 -5.156255,-2.29025 -5.156255,-5.11541 0,-2.82517 2.308534,-5.11542 5.156255,-5.11542 2.847721,0 5.156255,2.29025 5.156255,5.11542 z m 42.907183,0 c 0,2.82516 2.30854,5.11541 5.15626,5.11541 2.84772,0 5.15625,-2.29025 5.15625,-5.11541 0,-2.82517 -2.30853,-5.11542 -5.15625,-5.11542 -2.84772,0 -5.15626,2.29025 -5.15626,5.11542 z"
         style="display:inline;fill:#8ee5ff;stroke-width:8.28984;stroke-linecap:round;stroke-linejoin:round" /><path
         id="path4-36"
         transform="matrix(0.44464098,0,0,0.44464098,43.768795,87.591232)"
         d="m 85.03403,158.04314 c 0,3.66054 -2.974565,6.628 -6.643878,6.628 -3.669313,0 -6.643878,-2.96746 -6.643878,-6.628 0,-3.66055 2.974565,-6.62801 6.643878,-6.62801 3.669313,0 6.643878,2.96746 6.643878,6.62801 z m 105.35057,0 c 0,3.66054 2.97457,6.628 6.64388,6.628 3.66931,0 6.64388,-2.96746 6.64388,-6.628 0,-3.66055 -2.97457,-6.62801 -6.64388,-6.62801 -3.66931,0 -6.64388,2.96746 -6.64388,6.62801 z"
         style="display:inline;fill:#000000;stroke-width:8.28984;stroke-linecap:round;stroke-linejoin:round" /><path
         style="display:inline;stroke-linecap:round;stroke-linejoin:round"
         d="m 70.546875,147.94531 a 1.6076857,1.6076857 0 0 0 -0.539063,3.09766 l 4.339844,1.74805 a 1.607525,1.607525 0 0 0 2.091797,-0.88868 1.607525,1.607525 0 0 0 0.06055,-0.32031 c 1.396954,0.23002 2.776815,0.53611 3.8125,1.0293 1.851886,0.88185 2.926233,1.63766 3.546875,2.43164 0.597359,0.76419 0.899128,1.68942 1.021484,3.25 a 1.607525,1.607525 0 0 0 -0.757812,1.33789 l 1.146484,4.14844 a 1.6076857,1.6076857 0 0 0 3.154297,-0.50586 c 0,0 -0.06257,-1.32337 -0.310547,-5.04297 -0.135736,-2.03604 -0.624314,-3.76538 -1.720703,-5.16797 -1.096389,-1.40259 -2.65298,-2.37912 -4.699219,-3.35352 -2.287089,-1.08909 -5.012326,-1.47242 -7.220703,-1.65039 -2.208376,-0.17796 -3.925781,-0.11328 -3.925781,-0.11328 z m 68.812495,0 c 0,0 -1.7174,-0.0647 -3.92578,0.11328 -2.20837,0.17797 -4.93361,0.5613 -7.2207,1.65039 -2.04624,0.9744 -3.60088,1.95093 -4.69726,3.35352 -1.09639,1.40259 -1.58693,3.13193 -1.72266,5.16797 -0.24798,3.7196 -0.31055,5.04297 -0.31055,5.04297 a 1.6076857,1.6076857 0 0 0 3.1543,0.50586 l 1.14648,-4.14844 a 1.607525,1.607525 0 0 0 -0.68945,-1.75977 c 0.14696,-1.26912 0.42215,-2.14635 0.95508,-2.82812 0.62064,-0.79398 1.69499,-1.54979 3.54687,-2.43164 1.08879,-0.51847 2.55328,-0.82962 4.02149,-1.0586 a 1.607525,1.607525 0 0 0 -0.14844,0.34961 1.607525,1.607525 0 0 0 2.0918,0.88868 l 4.33984,-1.74805 a 1.6076857,1.6076857 0 0 0 -0.54102,-3.09766 z"
         id="path5-3-1"
         transform="matrix(1.0886304,0,0,1.0886304,-9.2553652,-10.645497)" /></g></g><g
     id="layer4"
     style="display:inline"
     transform="translate(-19.357919,-54.61526)"><g
       id="g10"
       transform="matrix(0.23669824,0,0,0.23669824,77.747374,96.566891)"><path
         d="m 134.358,126.466 a 3.59,3.59 0 0 0 -0.855,-0.065 3.685,3.685 0 0 0 -1.425,0.37 3.725,3.725 0 0 0 -1.803,4.825 l -0.026,0.037 8.528,20.603 a 43.53,43.53 0 0 0 17.595,-22.102 l -21.976,-3.714 z m -34.194,2.92 a 3.72,3.72 0 0 0 -3.568,-2.894 3.656,3.656 0 0 0 -0.733,0.065 l -0.037,-0.045 -21.785,3.698 a 43.695,43.695 0 0 0 17.54,21.946 l 8.442,-20.4 -0.066,-0.08 a 3.683,3.683 0 0 0 0.207,-2.29 z m 18.245,8 a 3.718,3.718 0 0 0 -6.557,0.008 h -0.018 l -10.713,19.372 a 43.637,43.637 0 0 0 23.815,1.225 q 2.197,-0.5 4.292,-1.2 L 118.49,137.385 Z m 33.914,-45 -16.483,14.753 0.009,0.047 a 3.725,3.725 0 0 0 1.46,6.395 l 0.02,0.089 21.35,6.15 A 44.278,44.278 0 0 0 152.323,92.388 Z M 121.7,94.039 a 3.725,3.725 0 0 0 5.913,2.84 l 0.065,0.027 18.036,-12.788 a 43.85,43.85 0 0 0 -25.287,-12.19 l 1.253,22.105 z m -19.1,2.921 a 3.72,3.72 0 0 0 5.904,-2.85 l 0.092,-0.043 1.253,-22.14 a 44.682,44.682 0 0 0 -4.501,0.776 43.467,43.467 0 0 0 -20.937,11.409 l 18.154,12.869 z m -9.678,16.729 a 3.72,3.72 0 0 0 1.462,-6.396 l 0.018,-0.088 -16.574,-14.824 a 43.454,43.454 0 0 0 -6.168,27.51 l 21.245,-6.13 z m 16.098,6.512 6.114,2.94 6.096,-2.934 1.514,-6.581 -4.219,-5.276 h -6.79 l -4.231,5.268 z"
         class="cls-2"
         id="path1-6" /><path
         d="M 216.208,133.167 198.786,57.492 c -0.94868,-3.964341 -3.6253,-7.294239 -7.293,-9.073 l -70.521,-33.67 c -3.70172,-1.766478 -8.00328,-1.766478 -11.705,0 L 38.76,48.437 c -3.668594,1.777627 -6.346127,5.107384 -7.295,9.072 l -17.394,75.673 c -0.429001,1.91276 -0.430367,3.89665 -0.004,5.81 0.125565,0.58288 0.289591,1.1568 0.491,1.718 0.3404,0.95769 0.791098,1.87251 1.343,2.726 0.239,0.365 0.491,0.72 0.765,1.064 l 48.804,60.678 c 0.213,0.264 0.448,0.505 0.681,0.75 0.765767,0.81548 1.630471,1.53204 2.574,2.133 1.193339,0.75107 2.493838,1.31652 3.857,1.677 1.117833,0.30648 2.270939,0.46549 3.43,0.473 h 0.759 l 77.504,-0.018 c 0.47116,-0.002 0.94185,-0.0298 1.41,-0.083 0.67154,-0.0759 1.33642,-0.20228 1.989,-0.378 0.46772,-0.12316 0.92869,-0.27069 1.381,-0.442 0.353,-0.135 0.705,-0.27 1.045,-0.433 0.50919,-0.2438 1.0031,-0.51831 1.479,-0.822 1.22798,-0.77213 2.32142,-1.73991 3.237,-2.865 l 1.488,-1.85 47.299,-58.84 c 0.90656,-1.1368 1.61884,-2.41573 2.108,-3.785 0.20426,-0.56309 0.37128,-1.139 0.5,-1.724 0.42746,-1.91323 0.42609,-3.89736 -0.004,-5.81 z m -73.147,29.432 c 0.19804,0.58198 0.43284,1.15079 0.703,1.703 -0.43145,0.75496 -0.54889,1.64924 -0.327,2.49 1.02618,2.34986 2.27947,4.59385 3.742,6.7 0.81859,1.07674 1.57419,2.19995 2.263,3.364 0.17,0.315 0.392,0.803 0.553,1.136 1.28623,2.14957 0.43843,4.93973 -1.82626,6.01034 -2.2647,1.07061 -4.95894,-0.0451 -5.80374,-2.40334 -0.161,-0.33 -0.385,-0.77 -0.522,-1.082 -0.48221,-1.26476 -0.89122,-2.55623 -1.225,-3.868 -0.7318,-2.45437 -1.70175,-4.83134 -2.896,-7.097 -0.51948,-0.70056 -1.29272,-1.16974 -2.154,-1.307 -0.135,-0.233 -0.635,-1.15 -0.903,-1.623 -12.55381,4.75415 -26.41877,4.71855 -38.948,-0.1 l -0.955,1.73 c -0.681761,0.10593 -1.31571,0.41507 -1.819,0.887 -1.439164,2.36175 -2.539256,4.91404 -3.268,7.582 -0.330686,1.31185 -0.737372,2.60336 -1.218,3.868 -0.135,0.31 -0.361,0.744 -0.522,1.073 v 0.009 l -0.007,0.008 c -0.843479,2.362 -3.54241,3.47879 -5.808252,2.40342 -2.265842,-1.07538 -3.107249,-3.87243 -1.810748,-6.01942 0.159,-0.335 0.372,-0.82 0.54,-1.135 0.688413,-1.16696 1.443672,-2.29317 2.262,-3.373 1.489011,-2.16184 2.768152,-4.46094 3.82,-6.866 0.111921,-0.81533 -0.01886,-1.64556 -0.376,-2.387 l 0.768,-1.84 C 75.772028,155.64465 67.115038,144.83604 62.985,132.075 l -1.839,0.313 c -0.713502,-0.50635 -1.554657,-0.80256 -2.428,-0.855 -2.516375,0.48154 -4.979966,1.20662 -7.356,2.165 -1.233749,0.55492 -2.498134,1.03903 -3.787,1.45 -0.305,0.084 -0.745,0.168 -1.093,0.244 -0.028,0.01 -0.052,0.022 -0.08,0.029 -0.02154,0.003 -0.04324,0.005 -0.065,0.006 -2.371114,0.77991 -4.899114,-0.64909 -5.45368,-3.08279 -0.554566,-2.43369 1.104758,-4.81686 3.57968,-5.14121 l 0.061,-0.015 0.037,-0.01 c 0.353,-0.083 0.805,-0.2 1.127,-0.262 1.342614,-0.1864 2.694857,-0.29525 4.05,-0.326 2.555717,-0.16709 5.089043,-0.58306 7.564,-1.242 0.733482,-0.4672 1.353258,-1.09244 1.814,-1.83 l 1.767,-0.516 c -1.917412,-13.3187 1.149665,-26.876442 8.613,-38.073 l -1.353,-1.206 c -0.04933,-0.875319 -0.343115,-1.719267 -0.848,-2.436 -1.943772,-1.670848 -4.046084,-3.14786 -6.277,-4.41 -1.204611,-0.614324 -2.372875,-1.297453 -3.499,-2.046 -0.256,-0.191 -0.596,-0.478 -0.874,-0.704 l -0.063,-0.044 c -1.998445,-1.435479 -2.462233,-4.215525 -1.038,-6.222 0.819832,-1.003569 2.06893,-1.556247 3.363,-1.488 1.074089,0.04609 2.105154,0.435106 2.942,1.11 0.287,0.225 0.68,0.526 0.935,0.745 0.98248,0.9292 1.910681,1.914161 2.78,2.95 1.724866,1.89503 3.630566,3.617193 5.69,5.142 0.771715,0.405793 1.671717,0.493029 2.507,0.243 0.502667,0.366667 1.01,0.727333 1.522,1.082 7.4163,-7.883222 17.019674,-13.36972 27.577,-15.755 2.51275,-0.569057 5.06235,-0.96102 7.63,-1.173 l 0.1,-1.784 c 0.65551,-0.582529 1.13085,-1.340294 1.37,-2.184 0.0921,-2.56054 -0.0653,-5.123965 -0.47,-7.654 -0.2684,-1.32592 -0.46071,-2.66611 -0.576,-4.014 -0.011,-0.307 0.006,-0.731 0.01,-1.081 0,-0.04 -0.01,-0.08 -0.01,-0.118 -0.25372,-2.498599 1.70684,-4.669349 4.21829,-4.67054 2.51144,-0.0012 4.47406,2.167702 4.22271,4.66654 0,0.37 0.022,0.86 0.009,1.2 -0.11553,1.347703 -0.30886,2.687604 -0.579,4.013 -0.40713,2.530471 -0.56722,5.094539 -0.478,7.656 0.16684,0.856285 0.6617,1.61347 1.379,2.11 0.015,0.305 0.065,1.323 0.102,1.884 13.342,1.213361 25.7901,7.228119 35.032,16.927 l 1.606,-1.147 c 0.86256,0.147999 1.74932,0.0517 2.56,-0.278 2.05911,-1.527432 3.96475,-3.251552 5.69,-5.148 0.87117,-1.036405 1.80173,-2.021393 2.787,-2.95 0.259,-0.222 0.65,-0.52 0.936,-0.746 1.79409,-1.768971 4.72555,-1.593461 6.29576,0.376926 1.57022,1.970388 1.08702,4.867064 -1.03776,6.221074 -0.283,0.229 -0.657,0.548 -0.929,0.75 -1.12854,0.749107 -2.2995,1.43225 -3.507,2.046 -2.23048,1.262834 -4.33272,2.739799 -6.277,4.41 -0.56595,0.662688 -0.85021,1.520479 -0.792,2.39 -0.235,0.216 -1.06,0.947 -1.497,1.343 7.48445,11.156573 10.613,24.67248 8.792,37.983 l 1.704,0.496 c 0.42593,0.76644 1.0559,1.39988 1.82,1.83 2.47623,0.66007 5.01086,1.07738 7.568,1.246 1.35373,0.031 2.70458,0.13923 4.046,0.324 0.355,0.065 0.868,0.207 1.23,0.29 2.47498,0.32532 4.13341,2.70942 3.57762,5.14302 -0.5558,2.43361 -3.0848,3.86136 -5.45562,3.07998 l -0.061,-0.008 c -0.028,-0.007 -0.054,-0.022 -0.083,-0.03 -0.348,-0.075 -0.785,-0.151 -1.09,-0.231 -1.28877,-0.41402 -2.55255,-0.90217 -3.785,-1.462 -2.37819,-0.95909 -4.84418,-1.68419 -7.363,-2.165 -0.87168,-0.0275 -1.71952,0.28725 -2.362,0.877 -0.6,-0.114 -1.20133,-0.21933 -1.804,-0.316 -4.08071,12.84044 -12.73911,23.73284 -24.328,30.605 z"
         class="cls-2"
         id="path2-7" /><path
         d="M 225.407,135.107 206.4,52.547 a 14.838,14.838 0 0 0 -7.958,-9.9 L 121.507,5.917 a 14.825,14.825 0 0 0 -12.771,0 L 31.808,42.669 a 14.838,14.838 0 0 0 -7.961,9.895 L 4.873,135.129 a 14.668,14.668 0 0 0 1.995,11.185 c 0.261,0.4 0.538,0.788 0.838,1.162 l 53.246,66.205 a 14.98,14.98 0 0 0 11.499,5.487 l 85.387,-0.02 a 14.986,14.986 0 0 0 11.5,-5.48 l 53.227,-66.211 a 14.72,14.72 0 0 0 2.842,-12.347 z m -9.197,3.866 a 13.677,13.677 0 0 1 -0.498,1.723 13.184,13.184 0 0 1 -2.11,3.786 l -47.299,58.838 -1.486,1.852 a 13.305,13.305 0 0 1 -3.24,2.865 13.945,13.945 0 0 1 -1.474,0.822 q -0.513,0.237 -1.045,0.43 a 13.873,13.873 0 0 1 -1.383,0.445 13.473,13.473 0 0 1 -1.989,0.379 12.988,12.988 0 0 1 -1.41,0.082 l -77.504,0.018 h -0.76 a 13.298,13.298 0 0 1 -3.429,-0.472 13.925,13.925 0 0 1 -3.855,-1.679 13.424,13.424 0 0 1 -2.576,-2.132 c -0.233,-0.246 -0.468,-0.487 -0.68,-0.75 L 16.667,144.501 q -0.408,-0.514 -0.765,-1.066 a 13.102,13.102 0 0 1 -1.343,-2.726 13.505,13.505 0 0 1 -0.491,-1.719 13.315,13.315 0 0 1 0.004,-5.809 L 31.466,57.506 a 13.598,13.598 0 0 1 7.295,-9.07 l 70.508,-33.685 a 13.589,13.589 0 0 1 11.705,0 l 70.519,33.67 a 13.602,13.602 0 0 1 7.293,9.073 l 17.422,75.674 a 13.282,13.282 0 0 1 0.002,5.807 z"
         class="cls-1"
         id="path3-5"
         style="fill:#000000;fill-opacity:1" /><path
         d="M 228.13599,135.04015 208.55263,49.976636 A 15.287939,15.287939 0 0 0 200.35332,39.776434 L 121.08539,1.9326537 a 15.274545,15.274545 0 0 0 -13.15827,0 L 28.666397,39.799101 a 15.287939,15.287939 0 0 0 -8.202405,10.19505 L 0.9146347,135.06281 A 15.112784,15.112784 0 0 0 2.97013,146.58698 c 0.2689144,0.41213 0.554314,0.81189 0.863411,1.19723 l 54.860604,68.21257 a 15.434246,15.434246 0 0 0 11.847688,5.65338 l 87.976237,-0.0206 a 15.440427,15.440427 0 0 0 11.84872,-5.64616 l 54.84102,-68.21876 a 15.166361,15.166361 0 0 0 2.92818,-12.7214 z m -9.47588,3.98322 a 14.091734,14.091734 0 0 1 -0.5131,1.77525 13.583784,13.583784 0 0 1 -2.17399,3.9008 l -48.73327,60.62217 -1.53106,1.90817 a 13.708454,13.708454 0 0 1 -3.33825,2.95188 14.367861,14.367861 0 0 1 -1.51869,0.84692 q -0.52856,0.24419 -1.07669,0.44303 a 14.293678,14.293678 0 0 1 -1.42493,0.4585 13.881548,13.881548 0 0 1 -2.04932,0.39049 13.381841,13.381841 0 0 1 -1.45276,0.0845 l -79.854189,0.0186 h -0.783046 a 13.701242,13.701242 0 0 1 -3.532978,-0.48631 14.347255,14.347255 0 0 1 -3.971898,-1.72991 13.831062,13.831062 0 0 1 -2.654113,-2.19664 c -0.240065,-0.25348 -0.482191,-0.50179 -0.70062,-0.77276 L 13.06627,144.719 q -0.420372,-0.52958 -0.788198,-1.09832 a 13.499298,13.499298 0 0 1 -1.383724,-2.80866 13.914519,13.914519 0 0 1 -0.505889,-1.77113 13.718757,13.718757 0 0 1 0.0041,-5.98515 L 28.314027,55.08601 a 14.010339,14.010339 0 0 1 7.516209,-9.345034 L 108.47628,11.034531 a 14.001066,14.001066 0 0 1 12.05994,0 l 72.65738,34.690991 a 14.014459,14.014459 0 0 1 7.51415,9.348124 l 17.95029,77.968704 a 13.684756,13.684756 0 0 1 0.002,5.98309 z"
         class="cls-1"
         id="path3-5-7"
         style="fill:#000000;fill-opacity:1;stroke-width:1.03032" /><path
         d="m 185.814,127.106 c -0.36,-0.083 -0.874,-0.225 -1.227,-0.29 a 35.642,35.642 0 0 0 -4.046,-0.326 39.464,39.464 0 0 1 -7.57,-1.242 4.745,4.745 0 0 1 -1.82,-1.832 l -1.704,-0.496 a 54.837,54.837 0 0 0 -8.79,-37.983 c 0.436,-0.396 1.262,-1.127 1.495,-1.342 a 3.338,3.338 0 0 1 0.792,-2.39 39.495,39.495 0 0 1 6.277,-4.41 35.095,35.095 0 0 0 3.507,-2.046 c 0.272,-0.202 0.644,-0.522 0.929,-0.75 a 4.242,4.242 0 1 0 -5.256,-6.6 c -0.288,0.227 -0.68,0.525 -0.936,0.747 a 35.004,35.004 0 0 0 -2.789,2.95 39.533,39.533 0 0 1 -5.69,5.148 4.69,4.69 0 0 1 -2.56,0.278 l -1.606,1.147 A 55.309,55.309 0 0 0 119.788,60.742 c -0.039,-0.561 -0.087,-1.577 -0.102,-1.884 a 3.344,3.344 0 0 1 -1.377,-2.11 39.533,39.533 0 0 1 0.478,-7.656 35.112,35.112 0 0 0 0.575,-4.012 c 0.013,-0.34 -0.007,-0.834 -0.007,-1.201 a 4.242,4.242 0 1 0 -8.441,0.004 c 0,0.04 0.009,0.078 0.01,0.118 -0.004,0.35 -0.021,0.774 -0.01,1.08 a 35.476,35.476 0 0 0 0.576,4.015 39.475,39.475 0 0 1 0.47,7.654 4.601,4.601 0 0 1 -1.37,2.182 l -0.1,1.786 a 55.052,55.052 0 0 0 -7.63,1.173 54.289,54.289 0 0 0 -27.574,15.754 q -0.77,-0.531 -1.526,-1.082 a 3.333,3.333 0 0 1 -2.506,-0.243 39.383,39.383 0 0 1 -5.69,-5.141 35.255,35.255 0 0 0 -2.777,-2.95 c -0.257,-0.22 -0.65,-0.52 -0.938,-0.75 a 5.03,5.03 0 0 0 -2.942,-1.11 4.066,4.066 0 0 0 -3.363,1.49 4.473,4.473 0 0 0 1.038,6.222 l 0.065,0.046 c 0.276,0.226 0.616,0.515 0.872,0.702 a 35.256,35.256 0 0 0 3.499,2.048 39.367,39.367 0 0 1 6.276,4.412 4.69,4.69 0 0 1 0.849,2.434 l 1.351,1.208 a 54.613,54.613 0 0 0 -8.611,38.073 l -1.767,0.514 a 5.835,5.835 0 0 1 -1.814,1.827 39.39,39.39 0 0 1 -7.565,1.247 35.266,35.266 0 0 0 -4.049,0.326 c -0.324,0.06 -0.774,0.174 -1.127,0.262 l -0.037,0.008 -0.06,0.018 a 4.236,4.236 0 1 0 1.875,8.224 l 0.063,-0.01 c 0.028,-0.006 0.052,-0.02 0.08,-0.025 0.348,-0.08 0.786,-0.163 1.092,-0.246 a 35.59,35.59 0 0 0 3.786,-1.451 39.527,39.527 0 0 1 7.358,-2.165 4.68,4.68 0 0 1 2.426,0.857 l 1.84,-0.315 a 54.922,54.922 0 0 0 24.34,30.387 l -0.769,1.84 a 4.188,4.188 0 0 1 0.377,2.387 41.228,41.228 0 0 1 -3.82,6.864 35.183,35.183 0 0 0 -2.263,3.372 c -0.168,0.318 -0.381,0.805 -0.542,1.138 a 4.238,4.238 0 1 0 7.621,3.616 l 0.007,-0.008 v -0.01 c 0.16,-0.33 0.387,-0.763 0.522,-1.072 a 34.903,34.903 0 0 0 1.218,-3.868 29.517,29.517 0 0 1 3.268,-7.582 3.43,3.43 0 0 1 1.819,-0.888 l 0.957,-1.73 a 54.617,54.617 0 0 0 38.946,0.099 c 0.268,0.478 0.768,1.392 0.9,1.623 a 3.335,3.335 0 0 1 2.155,1.31 39.306,39.306 0 0 1 2.898,7.096 35.275,35.275 0 0 0 1.225,3.868 c 0.137,0.312 0.36,0.75 0.522,1.082 a 4.24,4.24 0 1 0 7.63,-3.607 c -0.161,-0.333 -0.383,-0.82 -0.55,-1.136 a 35.06,35.06 0 0 0 -2.263,-3.364 39.372,39.372 0 0 1 -3.742,-6.7 3.314,3.314 0 0 1 0.324,-2.49 14.519,14.519 0 0 1 -0.703,-1.703 54.92,54.92 0 0 0 24.328,-30.605 c 0.546,0.087 1.497,0.253 1.806,0.316 a 3.337,3.337 0 0 1 2.36,-0.877 39.476,39.476 0 0 1 7.36,2.165 35.135,35.135 0 0 0 3.788,1.462 c 0.305,0.08 0.74,0.156 1.09,0.233 0.029,0.008 0.055,0.02 0.083,0.028 l 0.06,0.009 a 4.236,4.236 0 1 0 1.878,-8.224 z m -40.1,-42.987 -18.037,12.787 -0.063,-0.03 a 3.723,3.723 0 0 1 -5.913,-2.838 l -0.02,-0.01 -1.253,-22.103 a 43.85,43.85 0 0 1 25.285,12.194 z m -33.978,24.228 h 6.788 l 4.22,5.276 -1.513,6.58 -6.096,2.934 -6.114,-2.94 -1.516,-6.583 z M 105.35,72.699 a 44.672,44.672 0 0 1 4.503,-0.774 l -1.255,22.137 -0.092,0.044 a 3.72,3.72 0 0 1 -5.904,2.852 l -0.035,0.02 L 84.413,84.106 A 43.467,43.467 0 0 1 105.35,72.699 Z m -27.52,19.68 16.574,14.824 -0.018,0.09 a 3.72,3.72 0 0 1 -1.462,6.395 l -0.017,0.072 -21.245,6.13 A 43.454,43.454 0 0 1 77.83,92.38 Z m 22.191,39.38 -8.441,20.397 A 43.696,43.696 0 0 1 74.044,130.208 l 21.783,-3.7 0.037,0.049 a 3.655,3.655 0 0 1 0.73,-0.065 3.72,3.72 0 0 1 3.364,5.185 z m 24.916,26.23 a 43.637,43.637 0 0 1 -23.815,-1.223 l 10.713,-19.372 h 0.018 a 3.725,3.725 0 0 1 6.557,-0.006 h 0.08 l 10.74,19.404 q -2.091,0.698 -4.293,1.199 z m 13.841,-5.751 -8.528,-20.605 0.026,-0.037 a 3.725,3.725 0 0 1 1.803,-4.823 3.685,3.685 0 0 1 1.425,-0.37 3.59,3.59 0 0 1 0.855,0.063 l 0.037,-0.046 21.977,3.714 a 43.53,43.53 0 0 1 -17.595,22.105 z m 19.903,-32.42 -21.352,-6.15 -0.02,-0.09 a 3.725,3.725 0 0 1 -1.46,-6.395 l -0.008,-0.043 16.482,-14.751 a 44.279,44.279 0 0 1 6.357,27.43 z"
         class="cls-1"
         id="path4-3" /></g></g><rect
     style="display:inline;opacity:1;fill:#ffffff;fill-opacity:1;stroke:#ffffff;stroke-width:6.42919;stroke-linecap:square;stroke-linejoin:round;stroke-dasharray:none;stroke-opacity:1"
     id="rect3"
     width="634.24384"
     height="98.744957"
     x="205.42314"
     y="42.394863" /><path
     d="m 234.06803,65.401203 q 7.34736,0 11.39017,1.757743 4.0428,1.757742 7.55829,5.273226 l -7.03097,7.030969 q -3.51549,-4.218581 -9.84336,-4.218581 -6.32787,0 -8.08561,2.988165 -1.75774,2.988158 0,5.097449 1.75774,2.10929 8.08561,3.163936 6.67942,0.703096 12.12842,4.394359 5.449,3.691255 5.449,11.776871 0,6.32787 -5.8357,10.898 -5.80055,4.57013 -13.53461,4.57013 -7.34737,0 -12.26904,-2.10929 -4.92168,-2.10929 -8.43717,-5.62478 l 7.03097,-7.03097 q 3.51549,4.21859 11.95265,4.92168 7.03097,0 8.75355,-2.98816 1.75775,-2.98816 0,-5.976319 -1.72258,-2.988165 -8.75355,-3.691262 -6.32787,-0.703097 -11.6011,-3.867033 -5.27323,-3.163936 -5.27323,-10.898001 0,-6.995811 5.97633,-11.214392 6.01148,-4.25374 12.33935,-4.25374 z m 41.49367,0 v 33.397102 q 0,8.085615 6.50364,13.710385 6.50365,5.62478 16.347,5.62478 9.84336,0 16.347,-5.62478 6.50365,-5.62477 6.50365,-13.710385 V 65.401203 h -10.54645 v 30.584714 q 0,5.976323 -3.51549,8.788713 -3.51548,2.81239 -8.78871,2.81239 -5.27322,0 -8.78871,-2.81239 -3.51548,-2.81239 -3.51548,-8.788713 V 65.401203 Z m 70.32063,52.732267 V 65.401203 h 22.99127 q 18.4563,0 18.4563,15.186893 0,15.74937 -18.42114,15.74937 h -12.47997 v 21.796004 z m 10.54646,-31.63936 h 14.76503 q 6.36303,-0.105461 6.5388,-5.800546 -0.17577,-5.202917 -6.43333,-5.413846 h -14.8705 z m 51.75887,31.63936 V 65.436362 l 38.74064,-0.03517 v 9.843357 h -28.19418 v 11.24955 h 21.12806 V 96.3023 h -21.12806 v 11.9878 h 28.12387 v 9.84335 z M 481.3207,86.49411 h 14.76503 q 6.36302,-0.105461 6.5388,-5.800546 -0.17578,-5.202917 -6.43334,-5.413846 H 481.3207 Z m 21.19836,8.648091 13.14792,22.991269 H 503.57371 L 490.95312,96.337466 H 481.3207 V 118.13347 H 470.77424 V 65.401203 h 22.99127 q 18.45629,0 18.45629,15.186893 0,11.425328 -9.70274,14.554105 z m 31.86123,22.991269 V 65.401203 h 3.51549 l 33.04555,33.045553 V 65.401203 h 10.54646 v 52.732267 h -3.86704 l -32.694,-32.694006 v 32.694006 z m 71.12919,0 V 65.436362 l 38.74064,-0.03517 v 9.843357 h -28.19419 v 11.24955 H 637.184 V 96.3023 h -21.12807 v 11.9878 h 28.12388 v 9.84335 z m 59.91484,-52.732267 v 9.843357 h 17.57742 v 42.88891 H 693.5482 V 75.24456 h 17.57742 v -9.843357 z m 66.62937,52.732267 V 65.436362 l 38.74064,-0.03517 v 9.843357 h -28.19419 v 11.24955 h 21.12807 V 96.3023 h -21.12807 v 11.9878 h 28.12388 v 9.84335 z m 79.74213,-52.732267 q 7.34736,0 11.39017,1.757743 4.0428,1.757742 7.55828,5.273226 l -7.03096,7.030969 q -3.51549,-4.218581 -9.84336,-4.218581 -6.32787,0 -8.08561,2.988165 -1.75775,2.988158 0,5.097449 1.75774,2.10929 8.08561,3.163936 6.67942,0.703096 12.12842,4.394359 5.449,3.691255 5.449,11.776871 0,6.32787 -5.8357,10.898 -5.80055,4.57013 -13.53461,4.57013 -7.34737,0 -12.26905,-2.10929 -4.92168,-2.10929 -8.43716,-5.62478 l 7.03097,-7.03097 q 3.51548,4.21859 11.95265,4.92168 7.03096,0 8.75355,-2.98816 1.75775,-2.98816 0,-5.976319 -1.72259,-2.988165 -8.75355,-3.691262 -6.32788,-0.703097 -11.6011,-3.867033 -5.27323,-3.163936 -5.27323,-10.898001 0,-6.995811 5.97632,-11.214392 6.01149,-4.25374 12.33936,-4.25374 z"
     id="text1"
     style="font-weight:bold;font-size:96px;font-family:Nevis;-inkscape-font-specification:'Nevis Bold';letter-spacing:17.6396px;white-space:pre;stroke-width:28.3453;stroke-linecap:round;stroke-linejoin:round"
     aria-label="SUPERNETES" /><path
     style="fill:none;stroke:#000000;stroke-width:6.0008;stroke-linecap:square;stroke-linejoin:round;stroke-dasharray:none;stroke-opacity:1"
     d="M 213.64306,50.614063 H 831.44704 M 213.64306,132.92059 h 617.80398"
     id="path2" /></svg>
